<?xml version="1.0" standalone="no"?>
<!DOCTYPE svg PUBLIC "-//W3C//DTD SVG 20010904//EN"
 "http://www.w3.org/TR/2001/REC-SVG-20010904/DTD/svg10.dtd">
<svg version="1.0" xmlns="http://www.w3.org/2000/svg"
 width="309.000000pt" height="341.000000pt" viewBox="0 0 309.000000 341.000000"
 preserveAspectRatio="xMidYMid meet">
<metadata>
Created by potrace 1.15, written by Peter Selinger 2001-2017
</metadata>
<g transform="translate(0.000000,341.000000) scale(0.100000,-0.100000)"
fill="#000000" stroke="none">
<path d="M1445 3244 c-16 -3 -39 -9 -50 -14 -11 -5 -49 -21 -85 -36 -36 -14
-72 -32 -81 -40 -8 -8 -23 -14 -32 -14 -9 0 -21 -9 -26 -19 -6 -10 -31 -32
-56 -47 -25 -16 -45 -32 -45 -35 0 -8 -110 -151 -130 -169 -10 -8 -29 -53 -44
-100 -15 -47 -31 -100 -37 -118 -26 -80 -7 -357 30 -455 16 -40 15 -42 -21
-42 l-33 0 3 -80 c3 -93 15 -153 49 -251 26 -78 53 -114 83 -114 20 0 26 -18
21 -64 -1 -11 5 -26 13 -35 18 -21 30 -61 18 -61 -5 0 -12 15 -16 33 -5 23 -9
28 -15 18 -5 -7 -14 -11 -19 -7 -6 4 -16 -2 -21 -12 -7 -14 -18 -18 -36 -15
-18 4 -25 1 -25 -10 0 -9 -9 -19 -20 -22 -11 -3 -20 -11 -20 -16 0 -17 -33
-45 -37 -32 -6 17 -42 3 -49 -19 -4 -14 -9 -17 -17 -9 -7 7 -7 14 1 24 9 11 7
13 -10 12 -12 -1 -24 -7 -26 -13 -2 -7 -12 -12 -22 -12 -9 0 -23 -7 -30 -15
-9 -11 -16 -13 -24 -5 -17 17 -26 12 -26 -15 0 -31 -13 -32 -28 -3 -7 15 -11
18 -11 7 -1 -8 4 -20 10 -26 13 -13 -22 -53 -46 -53 -8 0 -14 -3 -14 -7 6 -36
-22 -44 -53 -16 -17 15 -18 15 -18 0 0 -11 -8 -17 -25 -17 -16 0 -25 -6 -25
-16 0 -12 -6 -15 -22 -11 -25 7 -58 -8 -58 -26 0 -7 -9 -18 -20 -25 -17 -10
-20 -10 -20 3 0 8 -5 15 -11 15 -7 0 -8 -11 -4 -31 7 -31 6 -31 -21 -25 -23 6
-26 5 -15 -7 14 -18 -5 -28 -41 -20 -18 4 -20 2 -8 -6 12 -8 10 -12 -10 -19
-22 -9 -23 -11 -8 -17 25 -10 13 -23 -15 -18 -14 3 -29 -2 -36 -11 -11 -13
-11 -16 3 -16 9 0 16 -4 16 -9 0 -5 -8 -8 -17 -7 -13 1 -17 -8 -19 -39 -2 -56
-8 -78 -25 -84 -8 -3 -26 -17 -42 -30 -26 -24 -27 -27 -27 -137 l0 -113 28 15
c15 7 35 14 44 14 9 0 20 4 23 10 9 14 -10 12 -50 -4 -19 -8 -35 -11 -35 -7 0
31 213 100 315 101 28 0 59 7 69 15 11 8 30 15 43 15 26 0 39 -34 29 -80 -5
-28 8 -43 16 -18 2 6 11 9 20 6 11 -5 14 -18 12 -55 -6 -77 -26 -183 -36 -183
-5 0 -7 8 -4 18 3 9 8 31 10 47 2 17 6 37 10 45 5 14 -19 58 -28 49 -2 -2 -6
-51 -8 -109 -2 -58 -2 -97 0 -87 2 9 8 17 13 17 17 0 9 -26 -21 -67 -27 -37
-29 -43 -15 -56 19 -20 19 -29 -1 -25 -21 4 -71 -115 -84 -200 -5 -37 -12 -82
-16 -99 l-6 -33 50 0 51 0 6 48 c10 76 19 82 23 15 l3 -63 99 0 100 0 1 43 c1
23 3 56 5 72 18 174 19 227 6 232 -7 3 -44 3 -82 -1 -70 -6 -85 -1 -70 23 6
11 22 12 81 3 40 -6 76 -9 81 -6 4 3 8 40 8 84 0 99 17 277 30 310 6 14 17 65
25 114 7 48 16 91 19 94 17 16 17 -18 2 -99 -10 -50 -15 -93 -12 -96 3 -3 13
0 22 8 10 8 18 13 18 11 1 -2 13 1 29 7 39 15 35 32 -5 20 -41 -11 -38 -11
-38 4 0 13 45 37 70 37 26 0 50 33 50 69 0 34 42 102 94 150 14 14 26 30 26
38 0 15 35 53 49 53 11 0 56 -95 66 -140 4 -17 15 -34 25 -38 17 -7 17 -8 2
-27 -10 -12 -31 -27 -49 -34 -24 -10 -40 -29 -65 -76 -18 -35 -41 -66 -50 -69
-10 -2 -18 -9 -18 -15 0 -15 33 -14 48 1 9 9 15 9 25 -1 13 -13 20 -407 7
-426 -4 -5 -11 -66 -14 -135 -4 -69 -9 -144 -13 -168 l-5 -42 71 0 c39 0 71 3
72 8 1 4 3 25 5 46 2 22 8 81 13 130 6 50 10 154 10 231 -1 77 3 141 7 143 5
1 10 -13 12 -32 2 -26 7 -33 18 -29 15 5 16 4 18 -39 1 -16 -2 -28 -6 -28 -4
0 -8 6 -9 13 0 6 -4 3 -8 -8 -11 -29 -6 -80 7 -81 7 -1 15 -2 20 -4 4 -1 22
-2 41 -3 19 -1 36 -8 39 -15 3 -10 -10 -12 -54 -10 l-59 3 -6 -70 c-20 -232
-21 -259 -4 -245 8 7 15 8 15 3 0 -4 42 -10 94 -11 76 -3 95 0 99 12 11 28 28
266 20 279 -4 6 -8 30 -10 52 l-3 40 23 -45 c17 -33 22 -58 19 -95 l-3 -50 20
33 c27 41 27 41 -9 122 -16 38 -30 76 -30 85 0 17 -50 66 -62 59 -3 -2 3 -22
14 -45 10 -23 17 -43 14 -47 -12 -12 -47 33 -52 69 -4 25 -15 44 -30 54 -13 8
-24 20 -24 25 0 5 -13 39 -30 75 -16 36 -30 73 -30 81 0 23 -70 124 -86 124
-8 0 -14 3 -14 8 0 4 22 8 49 9 l48 2 30 -67 c17 -37 36 -89 43 -117 13 -51
53 -105 77 -105 28 0 101 -82 132 -146 31 -65 34 -99 5 -60 -22 30 -27 12 -8
-27 14 -28 15 -42 7 -60 -6 -13 -9 -34 -6 -48 3 -15 -3 -33 -15 -47 -17 -19
-41 -137 -30 -147 2 -2 32 23 68 56 62 56 64 59 45 73 -11 8 -17 17 -14 21 4
3 14 -1 23 -10 9 -10 24 -14 35 -10 17 5 19 1 16 -29 -2 -20 -6 -39 -8 -43 -3
-4 1 -14 9 -21 12 -11 14 -2 16 60 4 137 9 174 29 212 10 16 8 18 -18 14 -15
-3 -36 -9 -45 -13 -37 -15 -16 13 22 30 22 10 40 21 40 25 0 5 11 11 25 14 14
4 39 21 56 39 17 17 34 32 37 32 4 0 6 10 4 23 -2 13 3 22 10 22 8 0 14 14 15
35 2 46 -19 46 -41 0 -9 -19 -27 -40 -39 -46 -12 -7 -25 -17 -29 -23 -4 -6
-10 -7 -14 -3 -4 4 6 19 24 33 17 14 28 32 26 39 -7 17 46 57 69 51 18 -4 37
26 42 66 2 16 42 57 58 58 4 0 7 7 7 16 0 14 2 14 16 3 14 -12 13 -16 -15 -38
-38 -32 -39 -40 -5 -33 25 4 26 3 20 -22 l-7 -27 23 23 23 23 3 -35 c2 -19 -3
-62 -12 -95 -33 -127 -47 -232 -53 -412 l-5 -133 69 0 69 0 13 218 c6 119 20
264 29 322 l17 105 6 -105 c3 -58 6 -94 7 -80 1 14 7 32 13 40 7 11 9 -1 5
-45 -3 -33 -5 -66 -6 -72 0 -29 -20 -10 -21 20 -1 31 -2 31 -10 -8 -17 -85
-15 -90 43 -93 57 -4 71 -9 62 -23 -7 -12 -104 -7 -104 6 0 6 -5 3 -10 -5 -13
-24 -25 -280 -12 -280 6 0 13 6 15 13 4 9 6 9 6 0 1 -7 7 -13 15 -13 10 0 13
7 11 20 -6 32 3 45 31 46 24 2 25 0 19 -32 l-6 -34 60 0 60 0 5 53 c4 28 8 97
11 152 14 291 16 319 33 331 9 7 14 16 10 20 -4 4 -13 2 -20 -3 -31 -25 -65
-8 -154 75 -49 45 -108 92 -133 104 -39 19 -42 22 -27 34 25 18 151 37 196 30
29 -5 41 -2 55 14 10 11 21 17 25 15 4 -3 16 -36 25 -75 9 -38 20 -70 23 -70
6 0 -6 192 -14 214 -6 16 11 23 20 8 3 -5 8 -42 11 -83 3 -41 8 -103 11 -139
6 -61 7 -63 20 -40 7 14 14 21 14 15 1 -5 5 -1 9 9 4 11 4 42 -1 70 -4 28 -10
69 -12 91 -2 22 -13 58 -25 80 -24 46 -29 75 -8 53 6 -7 19 -27 27 -45 16 -33
93 -103 115 -103 15 0 9 76 -7 97 -5 7 -7 16 -5 21 3 4 3 13 -1 18 -9 13 -89
66 -122 81 -85 38 -102 44 -107 39 -3 -3 -26 11 -51 30 -38 29 -47 32 -54 19
-8 -13 -12 -13 -33 1 -14 9 -36 14 -50 12 -29 -6 -31 -1 -9 30 10 14 11 22 4
22 -20 0 -2 416 22 520 27 120 26 117 57 123 16 3 32 14 36 24 23 59 45 177
51 275 4 73 12 123 22 140 21 37 2 62 -41 52 l-30 -6 9 38 c14 62 6 282 -12
339 -62 191 -98 255 -196 351 -56 55 -188 154 -205 154 -3 0 -36 12 -72 27
-54 21 -85 27 -166 29 -55 1 -113 0 -130 -2z m178 -674 c-4 -16 -2 -19 13 -13
13 5 16 3 11 -10 -3 -8 -9 -31 -12 -49 -5 -28 -3 -34 12 -36 10 -1 29 -3 43
-6 14 -2 35 -5 47 -5 19 -1 20 -3 10 -31 -6 -17 -16 -29 -22 -26 -7 2 -17 -5
-23 -15 -7 -10 -16 -19 -22 -19 -19 0 -81 -74 -75 -89 3 -9 3 -12 -1 -8 -4 4
-12 0 -18 -9 -10 -13 -16 -14 -39 -3 -15 7 -26 18 -23 24 2 6 -19 27 -47 46
-69 46 -97 73 -97 93 0 16 2 17 42 19 27 2 70 36 62 49 -9 14 4 52 26 78 13
15 36 26 63 30 51 8 57 6 50 -20z m188 -536 c7 -9 23 -20 36 -25 23 -9 61 -69
43 -69 -5 0 -10 -11 -10 -23 0 -32 -29 -56 -61 -53 -36 4 -55 16 -39 26 14 9
4 110 -11 110 -14 0 -11 38 4 43 20 9 24 8 38 -9z m-824 -868 c-6 -19 -56 -43
-65 -30 -5 9 -11 8 -20 -2 -11 -12 -10 -14 3 -14 12 0 11 -7 -8 -37 -26 -41
-30 -42 -200 -45 -65 -2 -98 16 -51 28 16 4 34 10 40 15 23 18 217 90 230 85
7 -3 15 -2 18 2 7 12 57 11 53 -2z m1210 -147 c8 -8 13 -8 17 0 13 20 36 12
36 -12 0 -12 7 -33 16 -45 15 -22 15 -25 -7 -48 -27 -29 -39 -30 -46 -4 -15
58 -201 -27 -285 -130 -17 -22 -33 -38 -36 -36 -4 4 44 97 88 171 10 17 27 48
39 70 15 27 21 34 21 20 0 -41 37 -58 127 -59 73 -1 83 1 83 16 0 10 -4 18
-10 18 -5 0 -10 -4 -10 -10 0 -5 -7 -10 -16 -10 -8 0 -13 4 -10 9 3 5 -1 11
-8 14 -22 9 -41 47 -23 47 7 0 18 -5 24 -11z m-1605 -140 c-1 -13 -7 -52 -13
-86 -12 -69 -7 -98 16 -89 12 4 14 -6 10 -64 -4 -44 -2 -70 5 -70 5 0 10 9 10
21 0 11 5 17 10 14 6 -3 10 -15 10 -25 0 -10 7 -26 16 -34 10 -11 14 -30 12
-58 -3 -39 -6 -43 -30 -46 -23 -3 -28 1 -29 20 -1 20 -2 21 -6 3 -3 -11 -12
-24 -20 -30 -8 -6 -13 -17 -11 -25 2 -10 -7 -16 -24 -18 -16 -2 -28 1 -28 7 0
6 3 11 8 11 4 0 7 46 8 102 0 57 5 137 12 178 7 41 15 108 19 148 4 46 10 71
17 69 6 -2 10 -15 8 -28z"/>
<path d="M2676 739 c4 -19 7 -117 6 -219 -2 -179 -4 -230 -18 -427 l-7 -93 65
0 65 0 5 78 c8 102 13 302 13 491 l0 154 -35 18 c-20 10 -50 22 -69 25 l-33 7
8 -34z"/>
<path d="M2900 756 c0 -8 5 -27 12 -41 19 -41 0 -41 -38 1 -20 21 -34 31 -30
21 3 -11 0 -20 -9 -23 -23 -9 -20 -100 3 -119 19 -17 19 -52 3 -175 -5 -36
-12 -102 -16 -148 -6 -75 -5 -83 11 -80 9 2 19 -3 22 -11 3 -10 -1 -13 -16 -9
-16 5 -21 0 -26 -31 -3 -20 -6 -60 -6 -88 l0 -53 35 0 35 0 2 58 c2 83 2 84
26 122 22 36 29 70 14 70 -10 0 -32 -45 -32 -65 0 -8 -5 -15 -11 -15 -7 0 -8
7 -4 17 12 31 13 67 3 93 -6 14 -11 85 -13 158 -2 131 -2 133 19 130 19 -3 21
-9 21 -83 0 -44 -4 -100 -8 -125 -11 -63 4 -40 38 55 15 44 41 108 58 143 40
87 34 117 -38 171 -37 28 -55 37 -55 27z"/>
<path d="M190 473 c0 -19 30 -105 40 -113 10 -9 5 -33 -7 -37 -7 -3 -15 7 -19
21 -3 13 -12 27 -20 30 -8 3 -14 12 -14 21 0 8 -9 24 -20 35 -16 16 -20 17
-20 5 0 -9 7 -18 15 -21 8 -4 15 -14 15 -23 0 -14 -2 -14 -10 -1 -8 13 -10 13
-10 -1 0 -9 7 -19 15 -23 8 -3 14 -11 13 -18 -2 -7 4 -11 12 -10 8 2 12 0 8
-4 -4 -4 -4 -12 1 -18 7 -8 -3 -18 -30 -33 l-40 -22 -18 30 -19 31 -16 -23
c-9 -13 -16 -33 -16 -45 0 -12 -11 -57 -25 -100 -15 -43 -25 -94 -23 -113 l3
-36 74 -3 c61 -2 75 0 87 15 13 17 13 17 14 -2 1 -16 4 -14 15 10 8 17 14 41
15 54 0 19 3 21 14 12 13 -11 13 -18 1 -52 l-14 -39 49 0 c28 0 50 1 50 3 0 2
-4 28 -10 58 -5 30 -12 81 -15 114 -9 107 -17 150 -35 175 -9 14 -25 51 -34
83 -18 58 -26 70 -26 40z"/>
<path d="M3023 128 c-35 -46 -63 -93 -63 -105 0 -22 4 -23 65 -23 l65 0 0 105
c0 58 -1 105 -2 105 -2 0 -31 -37 -65 -82z"/>
</g>
</svg>
